<?xml version="1.0" encoding="iso-8859-1"?>
<!-- Generator: Adobe Illustrator 19.0.0, SVG Export Plug-In . SVG Version: 6.00 Build 0)  -->
<svg version="1.1" id="Capa_1" xmlns="http://www.w3.org/2000/svg" xmlns:xlink="http://www.w3.org/1999/xlink" x="0px" y="0px"
	 viewBox="0 0 384.873 384.873" style="enable-background:new 0 0 384.873 384.873;" xml:space="preserve">
<g>
	<path id="Vintage_Arrow_Down_1_" d="M200.927,381.42l84.2-82.997c4.74-4.704,4.74-12.319,0-17.011
		c-4.752-4.704-12.439-4.704-17.191,0l-63.472,62.57V208.424l80.856-79.701c2.045-2.033,3.573-5.534,3.573-8.517V11.934
		c0-10.502-13.257-15.916-20.74-8.505l-75.61,74.54L116.943,3.416c-7.29-7.23-20.524-2.298-20.524,9.612v106.059
		c0,3.513,0.674,6.978,3.344,9.624l80.651,79.508v135.979l-63.688-62.786c-4.74-4.704-12.439-4.704-17.191,0
		c-4.74,4.704-4.74,12.319,0,17.011l84.2,83.009c2.31,2.274,5.486,3.441,8.698,3.441
		C195.273,384.861,198.882,383.453,200.927,381.42z M120.48,115.166V40.854l59.935,59.081v74.311L120.48,115.166z M204.476,100.152
		l60.368-59.514v74.323l-60.368,59.514V100.152z"/>
	<g>
	</g>
	<g>
	</g>
	<g>
	</g>
	<g>
	</g>
	<g>
	</g>
	<g>
	</g>
</g>
<g>
</g>
<g>
</g>
<g>
</g>
<g>
</g>
<g>
</g>
<g>
</g>
<g>
</g>
<g>
</g>
<g>
</g>
<g>
</g>
<g>
</g>
<g>
</g>
<g>
</g>
<g>
</g>
<g>
</g>
</svg>
